<?xml version="1.0" encoding="utf-8"?>
<!-- Generator: Adobe Illustrator 18.0.0, SVG Export Plug-In . SVG Version: 6.00 Build 0)  -->
<!DOCTYPE svg PUBLIC "-//W3C//DTD SVG 1.1//EN" "http://www.w3.org/Graphics/SVG/1.1/DTD/svg11.dtd">
<svg version="1.1" id="图层_1" xmlns="http://www.w3.org/2000/svg" xmlns:xlink="http://www.w3.org/1999/xlink" x="0px" y="0px"
	 viewBox="0 0 842 841.9" enable-background="new 0 0 842 841.9" xml:space="preserve">
<rect x="410.4" y="104.5" fill="#F9D2A8" width="247.8" height="735.6"/>
<path fill="#EA4F2F" d="M1.7,806.9c1.2-2.9,2.2-5.8,3.7-8.5c6.1-10.9,15.6-16.1,27.9-16.2c15.3-0.1,30.6,0,46,0c1.8,0,3.6,0,5.9,0
	c0-2.7,0-4.9,0-7c0-63.1,0-126.2,0.1-189.3c0-4.1,0.3-8.4,1.3-12.3c3.4-13.1,15.1-22.1,28.6-22.1c56.1-0.1,112.2-0.1,168.3,0
	c17,0,29.8,13.5,29.8,30.9c0,64.3,0,128.5,0,192.8c0,2.1,0,4.2,0,6.7c11.8,0,23.1,0,35.3,0c0-2.4,0-4.8,0-7.2
	c0-245.8,0-491.5,0-737.3c0-19.4,5.9-27.7,24.1-34.1c0.3-0.1,0.5-0.4,0.8-0.6c119.6,0,239.1,0,358.7,0c0.2,0.2,0.4,0.6,0.6,0.7
	c18.4,7.1,23.9,15.1,23.9,34.9c0,245.3,0,490.7,0,736c0,2.4,0,4.9,0,7.9c2.3,0,4.1,0,5.9,0c16.3,0,32.6-0.1,48.9,0
	c12.3,0.1,21.8,5.3,27.8,16.2c1.5,2.7,2.5,5.7,3.7,8.5c0,3.7,0,7.3,0,11c-2.9,7.8-6.2,15.4-13.9,19.8c-3.5,2-7.4,3.5-11.1,5.2
	c-32.3,0-64.6,0-96.9,0c-0.1-0.1-0.2-0.3-0.3-0.4c-16.6-4.2-24.8-16.9-24.7-36.4c0.3-244.8,0.2-489.6,0.2-734.4c0-2.5,0-5,0-7.9
	c-95.8,0-191.2,0-287.4,0c0,2.4,0,4.9,0,7.3c0,245.8,0,491.6,0,737.4c0,11.7-3,21.9-13,28.7c-3.8,2.6-8.3,3.9-12.6,5.8
	c-35.3,0-70.6,0-105.9,0c-0.4-0.3-0.7-0.8-1.1-0.9c-16.8-5.9-23.4-15.2-23.4-32.7c0-63.6,0-127.2,0-190.8c0-2.1,0-4.2,0-6.3
	c-36.2,0-71.6,0-107.5,0c0,2.5,0,4.6,0,6.7c0,64.6,0,129.2,0,193.8c0,13.5-8.3,24.8-21.2,28.8c-1.2,0.4-2.4,0.9-3.6,1.4
	c-31.3,0-62.6,0-93.9,0c-5.4-3.1-11.6-5.2-15.9-9.5c-4.1-4.1-6.1-10.3-9.1-15.5C1.7,814.2,1.7,810.6,1.7,806.9z"/>
<path fill="#FFFFFF" d="M1.7,817.9c2.9,5.3,5,11.4,9.1,15.5c4.2,4.2,10.5,6.4,15.9,9.5c-8.3,0-16.7,0-25,0
	C1.7,834.6,1.7,826.2,1.7,817.9z"/>
<path fill="#FFFFFF" d="M818,842.9c3.7-1.7,7.6-3.1,11.1-5.2c7.6-4.4,11-12,13.9-19.8c0,8.3,0,16.7,0,25
	C834.7,842.9,826.3,842.9,818,842.9z"/>
<rect x="145.4" y="637.9" fill="#F9D2A8" width="82.6" height="202.2"/>
</svg>
