<?xml version="1.0" encoding="utf-8"?>
<!-- Generator: Adobe Illustrator 18.0.0, SVG Export Plug-In . SVG Version: 6.00 Build 0)  -->
<!DOCTYPE svg PUBLIC "-//W3C//DTD SVG 1.1//EN" "http://www.w3.org/Graphics/SVG/1.1/DTD/svg11.dtd">
<svg version="1.1" id="图层_1" xmlns="http://www.w3.org/2000/svg" xmlns:xlink="http://www.w3.org/1999/xlink" x="0px" y="0px"
	 viewBox="0 0 825 841.9" enable-background="new 0 0 825 841.9" xml:space="preserve">
<rect x="49" y="174.9" fill="#FED5AA" width="644" height="479"/>
<path fill="#FC4E2B" d="M145,2.9c178,0,356,0,534,0c1.6,0.4,3.2,1,4.8,1.1c18.6,1.5,36.5,6.1,53,14.7c57.1,29.8,86.5,77.2,87,141.6
	c0.6,83.9,0.3,167.9,0.4,251.8c0,1.3-0.1,2.7,0,4c0.1,1.3,0.5,2.5,0.8,3.8c0,47.3,0,94.7,0,142c-1.4,8.7-2.5,17.4-4.3,26
	c-14.7,68.3-78.5,119.7-148.4,119.7c-172.3,0-344.6,0-516.8,0c-20.7,0-40.6-4-59.7-12C41,672.7,0.7,617.7,1,550.6
	C1.5,466.8,1,383,0.9,299.2c0-1.7,0.1-3.3-0.1-5c-0.1-1.1-0.5-2.2-0.8-3.3c0-47.3,0-94.7,0-142c1.1-6.9,2-13.8,3.2-20.6
	C13.4,69.7,61.7,19.6,120.1,7.2C128.3,5.4,136.7,4.3,145,2.9z M412.1,54c-85,0-170,0-255,0.1c-6.5,0-13,0.6-19.4,1.5
	c-49,7.4-86.6,51.2-86.6,101.1c0,85.3,0.3,170.6,0.5,255.9c0.1,43.3,0,86.7,0.1,130c0,8.5,0.1,17,1.2,25.4c6.6,50,51,88.7,102,88.7
	c171.8,0.1,343.6,0.1,515.4-0.1c8.4,0,17-1.1,25.1-3.2c47.4-12.3,78.4-52.8,78.4-101.9c-0.1-43.3-0.4-86.6-0.5-129.9
	c-0.1-88.5,0.1-177-0.3-265.5c-0.1-28.6-11.1-53.2-31.7-73.1c-20.3-19.6-45-29-73.3-29C582.7,54,497.4,54,412.1,54z"/>
<path fill="#FC4E2B" d="M177,841.9c-1.2-0.5-2.4-1.1-3.6-1.5c-12.3-4.1-18.8-15-17.2-28.6c1.3-11.2,11.1-20,23.2-20.9
	c1.8-0.1,3.7-0.2,5.5-0.2c151.9,0,303.8,0,455.8,0c3.8,0,7.7,0.1,11.4,1.1c10.3,2.8,17.5,12.1,17.8,22.2
	c0.4,12.6-5.4,21.7-16.3,25.9c-1.5,0.6-3,1.3-4.5,1.9C491.7,841.9,334.3,841.9,177,841.9z"/>
<path fill="#FC4E2B" d="M486.9,229.9c-1.9,4.8-3.3,8.5-4.7,12.1c-38.5,103.8-77,207.6-115.5,311.4c-5,13.5-13.6,20.1-25.7,19.6
	c-11.3-0.5-18.5-6.7-22.7-16.8c-11.1-27.1-22.1-54.2-33.1-81.3c-11-27.1-22.1-54.2-33.1-81.3c-0.6-1.5-1.4-2.9-2.7-5.6
	c-3.1,8.7-5.8,16.2-8.5,23.8c-5.4,15.5-10.7,31.1-16.2,46.6c-4.7,13.5-12.7,19.2-26.9,19.2c-22.7,0-45.3,0-68,0
	c-14.2,0-25.5-11.3-25.6-25.8c-0.1-15.9,10.3-27.6,25.1-27.8c15.8-0.2,31.7-0.2,47.5,0.1c4.5,0.1,6.3-1.5,7.7-5.6
	c12.7-37.3,25.7-74.5,38.6-111.7c4.2-12.2,12.2-18.7,23.5-19.1c11.5-0.3,19.9,5.4,24.8,17.3c22.2,54.3,44.3,108.7,66.4,163.1
	c0.7,1.8,1.6,3.6,2.9,6.6c1.2-2.6,2-4.2,2.6-5.9c38.7-104.1,77.3-208.2,115.9-312.3c5.7-15.5,19.3-22.6,33.1-17.3
	c6.2,2.3,10.7,6.6,13.7,12.5c21.9,44.1,43.7,88.2,65.6,132.4c18.5,37.4,37,74.9,55.5,112.3c3.9,7.9,7.9,15.8,11.7,23.7
	c1.4,3,3.3,4,6.6,4c16.8-0.2,33.7-0.2,50.5,0c13.7,0.1,24.3,10.2,25.7,24.3c1.4,13.2-7.6,26-20.3,28.8c-1.8,0.4-3.6,0.4-5.5,0.4
	c-23.2,0-46.3-0.1-69.5,0.1c-10.8,0.1-18.7-4.7-23.4-14.1c-27.4-55.1-54.6-110.3-81.9-165.5c-10.6-21.5-21.3-42.9-31.9-64.4
	C488.7,232.8,488.2,232,486.9,229.9z"/>
</svg>
