<?xml version="1.0" standalone="no"?><!DOCTYPE svg PUBLIC "-//W3C//DTD SVG 1.1//EN" "http://www.w3.org/Graphics/SVG/1.1/DTD/svg11.dtd"><svg t="1600339994746" class="icon" viewBox="0 0 1024 1024" version="1.1" xmlns="http://www.w3.org/2000/svg" p-id="2005" xmlns:xlink="http://www.w3.org/1999/xlink" width="64" height="64"><defs><style type="text/css"></style></defs><path d="M957.197036 268.257673l0-14.409175 0-7.626701 0-101.508905 0-11.650341c0-18.081821-11.368932-31.716352-29.436426-31.716352l-825.296449 0c-18.067494 0-38.625716 13.634532-38.625716 31.716352l0 35.289738 0 77.869508 0 7.626701 0 14.409175L63.838446 764.156974l6.232958 0c-0.168846 0-6.232958 8.357342-6.232958 9.736758l0 113.160269c0 18.066471 20.557198 35.599799 38.625716 35.599799l825.296449 0c18.066471 0 29.436426-17.533328 29.436426-35.599799L957.197036 773.893732c0-1.379417 3.124154-9.736758 2.955308-9.736758l-2.955308 0L957.197036 268.257673zM409.664775 764.156974l0 129.678478L251.167948 893.835452 251.167948 764.156974 409.664775 764.156974zM438.482101 764.156974l158.496827 0 0 129.678478L438.482101 893.835452 438.482101 764.156974zM625.796254 764.156974l158.482501 0 0 129.678478L625.796254 893.835452 625.796254 764.156974zM102.465185 735.338624l-9.794064 0L92.671121 288.660352l835.70859 0 0 446.678272-0.618077 0L102.465185 735.338624zM625.796254 245.433852 625.796254 130.163525l158.482501 0 0 115.270327L625.796254 245.433852zM596.978928 245.433852 438.482101 245.433852 438.482101 130.163525l158.496827 0L596.978928 245.433852zM409.664775 245.433852 251.167948 245.433852 251.167948 130.163525l158.496827 0L409.664775 245.433852zM928.379711 133.062552l0 11.650341 0 101.508905c0 2.194992 1.575892-0.787946-0.618077-0.787946L813.096081 245.433852 813.096081 130.163525l114.665553 0C929.955602 130.163525 928.379711 130.866536 928.379711 133.062552zM92.671121 133.062552c0-2.196015 7.598049-2.899026 9.794064-2.899026l119.885438 0 0 115.270327L102.465185 245.433852c-2.196015 0-9.794064 2.982938-9.794064 0.787946l0-77.869508L92.671121 133.062552zM92.671121 887.054001 92.671121 773.893732c0-2.194992 7.598049-9.736758 9.794064-9.736758l119.885438 0 0 129.678478L102.465185 893.835452C100.26917 893.835452 92.671121 889.220341 92.671121 887.054001zM928.379711 773.893732l0 113.160269c0 2.166339 1.575892 6.78145-0.618077 6.78145L813.096081 893.835452 813.096081 764.156974l114.665553 0C929.955602 764.156974 928.379711 771.69874 928.379711 773.893732zM590.955748 486.836901l-143.440923-71.720462c-3.939729-1.969864-6.838755-2.968611-11.186783-2.968611-15.435551 0-26.66429 12.565177-26.66429 28.001751l0 143.447063c0 15.4509 11.228739 28.030403 26.66429 28.030403 4.348028 0 7.894807-1.013073 11.833513-2.982938l143.130861-71.727625c9.540284-4.76963 15.309684-14.367219 15.309684-25.032116C606.603123 501.203096 600.496032 491.606531 590.955748 486.836901zM435.808202 582.27453l-1.180895-141.379984 141.976572 70.988798L435.808202 582.27453z" p-id="2006" fill="#ffffff"></path></svg>