<?xml version="1.0" standalone="no"?><!DOCTYPE svg PUBLIC "-//W3C//DTD SVG 1.1//EN" "http://www.w3.org/Graphics/SVG/1.1/DTD/svg11.dtd"><svg t="1592962367716" class="icon" viewBox="0 0 1024 1024" version="1.1" xmlns="http://www.w3.org/2000/svg" p-id="4520" xmlns:xlink="http://www.w3.org/1999/xlink" width="64" height="64"><defs><style type="text/css"></style></defs><path d="M717 876.5c19.882 0 36 16.118 36 36 0 19.683-15.797 35.677-35.405 35.995l-0.595 0.005H307c-19.882 0-36-16.118-36-36 0-19.683 15.797-35.677 35.405-35.995l0.595-0.005h410z m45-105c19.882 0 36 16.118 36 36 0 19.683-15.797 35.677-35.405 35.995l-0.595 0.005H262c-19.882 0-36-16.118-36-36 0-19.683 15.797-35.677 35.405-35.995l0.595-0.005h500zM813 77c74.36 0 134.78 59.678 135.982 133.751L949 213v489c0 19.683-15.797 35.677-35.405 36H102c-19.683 0-35.677-15.797-36-35.405V213c0-74.36 59.678-134.78 133.751-135.982L202 77h611z m0 72H202c-34.993 0-63.426 28.084-63.991 62.942L138 213v453h739V213c0-34.643-27.525-62.857-61.898-63.966l-1.044-0.025L813 149z m-453.46 85.47c9.147 0 16.415 2.042 21.805 6.125 5.227 3.96 8.687 8.457 10.381 13.491l0.154 0.474L493.8 550.03l0.17 0.545c3.718 12.134 2.6 21.017-3.355 26.65-6.043 5.717-14.128 8.575-24.255 8.575-10.127 0.327-17.64-1.878-22.54-6.615-4.725-4.567-8.387-9.97-10.986-16.208l-0.284-0.697-23.52-58.8h-99.47l-21.83 57.058c-2.919 7.512-6.912 13.564-11.98 18.157-5.227 4.737-12.903 7.105-23.03 7.105s-18.212-2.777-24.255-8.33c-5.962-5.478-6.757-14.771-2.387-27.88l0.182-0.54L327.2 254.56l0.154-0.474c1.694-5.034 5.154-9.531 10.381-13.491 5.39-4.083 12.658-6.125 21.805-6.125z m290.08 4.9h1.174c24.981 0.134 46.558 4.462 64.731 12.985 18.457 8.657 33.647 20.58 45.57 35.77 11.923 15.19 20.743 33.157 26.46 53.9 5.717 20.743 8.575 43.202 8.575 67.375 0 25.807-2.94 49.245-8.82 70.315-5.88 21.07-14.863 39.118-26.95 54.145-12.087 15.027-27.113 26.623-45.08 34.79-17.677 8.035-38.358 12.117-62.043 12.25H558.382c-11.095-0.065-18.167-1.943-21.217-5.635-3.02-3.655-4.57-8.934-4.652-15.836l-0.003-0.579V261.42l0.003-0.579c0.078-6.902 1.546-12.18 4.407-15.836 2.891-3.694 10.046-5.572 21.466-5.635h91.234z m-9.8 50.96h-43.61v239.61h55.86c53.573 0 80.36-40.67 80.36-122.01 0-18.62-1.47-35.28-4.41-49.98-2.94-14.7-8.003-27.032-15.19-36.995-7.187-9.963-16.66-17.558-28.42-22.785-11.546-5.132-26.084-7.744-43.613-7.837l-0.977-0.003z m-280.28 36.26l-37.73 121.52h75.46l-37.73-121.52z" p-id="4521" fill="#fc962b"></path></svg>