<?xml version="1.0" standalone="no"?><!DOCTYPE svg PUBLIC "-//W3C//DTD SVG 1.1//EN" "http://www.w3.org/Graphics/SVG/1.1/DTD/svg11.dtd"><svg t="1592961271387" class="icon" viewBox="0 0 1024 1024" version="1.1" xmlns="http://www.w3.org/2000/svg" p-id="2807" width="64" height="64" xmlns:xlink="http://www.w3.org/1999/xlink"><defs><style type="text/css"></style></defs><path d="M80 688a16 16 0 0 1-16-16 80 80 0 0 1 80-80 16 16 0 0 1 0 32 48 48 0 0 0-48 48 16 16 0 0 1-16 16z" fill="#fc4e2b" p-id="2808"></path><path d="M612.16 419.84a65.76 65.76 0 0 0 6.24-3.84 26.72 26.72 0 0 0 2.56-1.92l-2.88 1.92c-1.92 1.44-3.84 2.56-5.92 3.84zM912 544h-8a256 256 0 0 0-72-121.6V272a16 16 0 0 0-16-16 112 112 0 0 0-112 100.64 258.08 258.08 0 0 0-26.88-3.68C670.56 352 663.2 352 656 352h-8.16a16 16 0 0 0-12.32 5.76 160 160 0 0 1-246.88 0 16 16 0 0 0-12.8-5.76 238.4 238.4 0 0 0-28.48 2.56A254.08 254.08 0 0 0 128 593.44V608a178.08 178.08 0 0 0 0.8 18.56A255.04 255.04 0 0 0 208 793.76V896a48 48 0 0 0 48 48h128a48 48 0 0 0 48-48v-32h80v32a48 48 0 0 0 48 48h128a48 48 0 0 0 48-48v-44.96A257.44 257.44 0 0 0 855.52 768H912a48 48 0 0 0 48-48v-128a48 48 0 0 0-48-48z m16 176a16 16 0 0 1-16 16h-64a16 16 0 0 0-12.8 6.4 224.96 224.96 0 0 1-119.2 81.44 16 16 0 0 0-11.68 16V896a16 16 0 0 1-16 16H560a16 16 0 0 1-16-16v-48a16 16 0 0 0-16-16h-112a16 16 0 0 0-16 16v48a16 16 0 0 1-16 16h-128a16 16 0 0 1-16-16v-109.28a16 16 0 0 0-5.28-12A224 224 0 0 1 369.28 384a185.44 185.44 0 0 0 36.64 32l6.56 4.32 6.4 3.68a190.08 190.08 0 0 0 50.88 19.36c3.36 0.8 6.88 1.44 10.4 1.92l5.12 0.8 6.4 0.8A171.04 171.04 0 0 0 512 448a176 176 0 0 0 20.48-1.12h5.44c2.08 0 4 0 5.92-0.96s7.04-1.12 10.4-1.92l11.68-3.04 8.48-2.72 9.76-3.68c3.2-1.28 6.4-2.56 9.6-4.16s6.24-3.04 9.28-4.64l9.12-5.28a65.76 65.76 0 0 0 6.24-3.84 26.72 26.72 0 0 0 2.56-1.92l9.28-6.88 7.52-6.08c2.72-2.24 5.28-4.64 7.84-7.2l7.2-7.36 3.2-3.2a227.36 227.36 0 0 1 59.68 8 16 16 0 0 0 14.08-2.56 16 16 0 0 0 6.24-12.8V368a80 80 0 0 1 64-78.4v139.84a16 16 0 0 0 5.28 11.84 221.76 221.76 0 0 1 70.24 121.92 16 16 0 0 0 16 12.8H912a16 16 0 0 1 16 16z" fill="#fc4e2b" p-id="2809"></path><path d="M928 592v128a16 16 0 0 1-16 16h-64a16 16 0 0 0-12.8 6.4 224.96 224.96 0 0 1-119.2 81.44 16 16 0 0 0-11.68 16V896a16 16 0 0 1-16 16H560a16 16 0 0 1-16-16v-48a16 16 0 0 0-16-16h-112a16 16 0 0 0-16 16v48a16 16 0 0 1-16 16h-128a16 16 0 0 1-16-16v-109.28a16 16 0 0 0-5.28-12A224 224 0 0 1 369.28 384a185.44 185.44 0 0 0 36.64 32H368a16 16 0 0 0 0 32h288a16 16 0 0 0 0-32h-37.6a26.72 26.72 0 0 0 2.56-1.92l9.28-6.88a65.92 65.92 0 0 0 7.52-6.08c2.72-2.24 5.28-4.64 7.84-7.2s4.96-4.8 7.2-7.36L656 384a227.36 227.36 0 0 1 59.68 8 16 16 0 0 0 14.08-2.56 16 16 0 0 0 6.24-12.8V368a80 80 0 0 1 64-78.4v139.84a16 16 0 0 0 5.28 11.84 221.76 221.76 0 0 1 70.24 121.92 16 16 0 0 0 16 12.8H912a16 16 0 0 1 16 16z" fill="#fc4e2b" opacity=".5" p-id="2810"></path><path d="M512 64a192 192 0 0 0-164.64 290.72 170.72 170.72 0 0 0 16 23.68l5.28 6.08a185.44 185.44 0 0 0 36.64 32l6.56 4.32 6.4 3.68a190.08 190.08 0 0 0 50.88 19.36c3.36 0.8 6.88 1.44 10.4 1.92l5.12 0.8 6.4 0.8A171.04 171.04 0 0 0 512 448a176 176 0 0 0 20.48-1.12h5.44c2.08 0 4 0 5.92-0.96s7.04-1.12 10.4-1.92l11.68-3.04 8.48-2.72 9.76-3.68 9.6-4.16c3.2-1.44 6.24-3.04 9.28-4.64l9.12-5.28c2.08-1.28 4-2.4 5.92-3.84l2.88-1.92 9.28-6.88 7.52-6.08c2.72-2.24 5.28-4.64 7.84-7.2l7.2-7.36 3.2-3.2 4.96-5.76A192 192 0 0 0 512 64z m0 352a160 160 0 1 1 123.52-58.24A160 160 0 0 1 512 416z" fill="#fc4e2b" p-id="2811"></path><path d="M569.6 247.52A47.04 47.04 0 0 0 576 224a48 48 0 0 0-32-45.12V160a16 16 0 0 0-32 0v16h-16v-16a16 16 0 0 0-32 0v16h-16a16 16 0 0 0 0 32v96a16 16 0 0 0 0 32h16v16a16 16 0 0 0 32 0v-16h16v16a16 16 0 0 0 32 0v-16a48 48 0 0 0 25.6-88.48zM528 208a16 16 0 0 1 0 32h-48v-32z m16 96h-64v-32h64a16 16 0 0 1 0 32z" fill="#fc4e2b" opacity=".5" p-id="2812"></path><path d="M672 432a16 16 0 0 1-16 16H368a16 16 0 0 1 0-32h288a16 16 0 0 1 16 16z" fill="#fc4e2b" p-id="2813"></path></svg>