<?xml version="1.0" encoding="utf-8"?>
<!-- Generator: Adobe Illustrator 18.0.0, SVG Export Plug-In . SVG Version: 6.00 Build 0)  -->
<!DOCTYPE svg PUBLIC "-//W3C//DTD SVG 1.1//EN" "http://www.w3.org/Graphics/SVG/1.1/DTD/svg11.dtd">
<svg version="1.1" id="图层_1" xmlns="http://www.w3.org/2000/svg" xmlns:xlink="http://www.w3.org/1999/xlink" x="0px" y="0px"
	 viewBox="0 0 761.5 764.2" enable-background="new 0 0 761.5 764.2" xml:space="preserve">
<g>
	<defs>
		<path id="SVGID_1_" d="M742.3,341.5v42.2c0,2.9,2.3,5.3,5.3,5.3c2.9,0,5.3-2.3,5.3-5.3v-42.2c0-2.9-2.3-5.3-5.3-5.3
			C744.6,336.2,742.3,338.6,742.3,341.5"/>
	</defs>
	<linearGradient id="SVGID_2_" gradientUnits="userSpaceOnUse" x1="742.2673" y1="362.5726" x2="752.8118" y2="362.5726">
		<stop  offset="0" style="stop-color:#FC4E2B"/>
		<stop  offset="1" style="stop-color:#FC962B"/>
	</linearGradient>
	<use xlink:href="#SVGID_1_"  overflow="visible" fill="url(#SVGID_2_)"/>
	<clipPath id="SVGID_3_">
		<use xlink:href="#SVGID_1_"  overflow="visible"/>
	</clipPath>
	
		<linearGradient id="SVGID_4_" gradientUnits="userSpaceOnUse" x1="-169.8742" y1="488.795" x2="-165.9059" y2="488.795" gradientTransform="matrix(2.6571 0 0 -2.6571 1193.6409 1661.3522)">
		<stop  offset="0" style="stop-color:#FC4E2B"/>
		<stop  offset="1" style="stop-color:#FC962B"/>
	</linearGradient>
	<rect x="742.3" y="336.2" clip-path="url(#SVGID_3_)" fill="url(#SVGID_4_)" width="10.5" height="52.7"/>
</g>
<g>
	<defs>
		<path id="SVGID_5_" d="M634.9,92.5c14.5,0,26.2,13.7,26.2,31.1c0-16.9,11.7-31.1,26.2-31.1c-14.5,0-26.2-13.7-26.2-31.1
			C661.1,78.4,649.4,92.5,634.9,92.5"/>
	</defs>
	<linearGradient id="SVGID_6_" gradientUnits="userSpaceOnUse" x1="634.853" y1="92.4785" x2="687.3016" y2="92.4785">
		<stop  offset="0" style="stop-color:#FC4E2B"/>
		<stop  offset="1" style="stop-color:#FC962B"/>
	</linearGradient>
	<use xlink:href="#SVGID_5_"  overflow="visible" fill="url(#SVGID_6_)"/>
	<clipPath id="SVGID_7_">
		<use xlink:href="#SVGID_5_"  overflow="visible"/>
	</clipPath>
	
		<linearGradient id="SVGID_8_" gradientUnits="userSpaceOnUse" x1="-362.1954" y1="503.75" x2="-358.2255" y2="503.75" gradientTransform="matrix(13.2113 0 0 -13.2113 5419.9243 6747.6699)">
		<stop  offset="0" style="stop-color:#FC4E2B"/>
		<stop  offset="1" style="stop-color:#FC962B"/>
	</linearGradient>
	<rect x="634.9" y="61.4" clip-path="url(#SVGID_7_)" fill="url(#SVGID_8_)" width="52.4" height="62.1"/>
</g>
<g>
	<defs>
		<path id="SVGID_9_" d="M217.4,23.8c0-7,5.9-12.9,12.9-12.9c7,0,12.9,5.9,12.9,12.9c0,7-5.9,12.9-12.9,12.9
			C223.3,36.7,217.4,30.9,217.4,23.8 M230.3,1c-12.3,0-22.8,10-22.8,22.8c0,12.3,10,22.9,22.8,22.9s22.9-10,22.9-22.9
			C253.1,11.5,243.2,1,230.3,1z"/>
	</defs>
	<linearGradient id="SVGID_10_" gradientUnits="userSpaceOnUse" x1="207.4467" y1="23.8498" x2="253.1462" y2="23.8498">
		<stop  offset="0" style="stop-color:#FC4E2B"/>
		<stop  offset="1" style="stop-color:#FC962B"/>
	</linearGradient>
	<use xlink:href="#SVGID_9_"  overflow="visible" fill="url(#SVGID_10_)"/>
	<clipPath id="SVGID_11_">
		<use xlink:href="#SVGID_9_"  overflow="visible"/>
	</clipPath>
	
		<linearGradient id="SVGID_12_" gradientUnits="userSpaceOnUse" x1="-383.9455" y1="510.4826" x2="-379.9753" y2="510.4826" gradientTransform="matrix(11.5108 0 0 -11.5108 4626.9512 5899.8926)">
		<stop  offset="0" style="stop-color:#FC4E2B"/>
		<stop  offset="1" style="stop-color:#FC962B"/>
	</linearGradient>
	<rect x="207.4" y="1" clip-path="url(#SVGID_11_)" fill="url(#SVGID_12_)" width="45.7" height="45.7"/>
</g>
<g>
	<defs>
		<path id="SVGID_13_" d="M711.8,159.4c0-7,5.9-12.9,12.9-12.9c7,0,12.9,5.9,12.9,12.9c0,7-5.9,12.9-12.9,12.9
			C717.7,172.2,711.8,166.4,711.8,159.4 M701.8,159.4c0,12.3,10,22.9,22.8,22.9s22.9-10,22.9-22.9c0-12.3-10-22.8-22.9-22.8
			C712.4,136.5,701.8,146.5,701.8,159.4"/>
	</defs>
	<linearGradient id="SVGID_14_" gradientUnits="userSpaceOnUse" x1="701.8401" y1="159.3624" x2="747.5396" y2="159.3624">
		<stop  offset="0" style="stop-color:#FC4E2B"/>
		<stop  offset="1" style="stop-color:#FC962B"/>
	</linearGradient>
	<use xlink:href="#SVGID_13_"  overflow="visible" fill="url(#SVGID_14_)"/>
	<clipPath id="SVGID_15_">
		<use xlink:href="#SVGID_13_"  overflow="visible"/>
	</clipPath>
	
		<linearGradient id="SVGID_16_" gradientUnits="userSpaceOnUse" x1="-352.1799" y1="501.9952" x2="-348.2098" y2="501.9952" gradientTransform="matrix(11.5108 0 0 -11.5108 4755.6987 5937.7085)">
		<stop  offset="0" style="stop-color:#FC4E2B"/>
		<stop  offset="1" style="stop-color:#FC962B"/>
	</linearGradient>
	<rect x="701.8" y="136.5" clip-path="url(#SVGID_15_)" fill="url(#SVGID_16_)" width="45.7" height="45.7"/>
</g>
<g>
	<defs>
		<path id="SVGID_17_" d="M143.3,173.8c0,7.8,6.3,14.4,14.4,14.4c8.1,0,14.4-6.3,14.4-14.4c0-7.8-6.3-14.4-14.4-14.4
			C150,159.4,143.3,165.7,143.3,173.8"/>
	</defs>
	<linearGradient id="SVGID_18_" gradientUnits="userSpaceOnUse" x1="143.3141" y1="173.7856" x2="172.1528" y2="173.7856">
		<stop  offset="0" style="stop-color:#FC4E2B"/>
		<stop  offset="1" style="stop-color:#FC962B"/>
	</linearGradient>
	<use xlink:href="#SVGID_17_"  overflow="visible" fill="url(#SVGID_18_)"/>
	<clipPath id="SVGID_19_">
		<use xlink:href="#SVGID_17_"  overflow="visible"/>
	</clipPath>
	
		<linearGradient id="SVGID_20_" gradientUnits="userSpaceOnUse" x1="-379.4139" y1="507.9658" x2="-375.4444" y2="507.9658" gradientTransform="matrix(7.265 0 0 -7.265 2899.7617 3864.1646)">
		<stop  offset="0" style="stop-color:#FC4E2B"/>
		<stop  offset="1" style="stop-color:#FC962B"/>
	</linearGradient>
	<rect x="143.3" y="159.4" clip-path="url(#SVGID_19_)" fill="url(#SVGID_20_)" width="28.8" height="28.8"/>
</g>
<g>
	<defs>
		<path id="SVGID_21_" d="M3.1,91.8c35.1,0,63.3,33.4,63.3,75c0-41.6,28.1-75,63.3-75c-35.2,0-63.3-33.4-63.3-75
			C66.3,57.8,38.2,91.8,3.1,91.8"/>
	</defs>
	<linearGradient id="SVGID_22_" gradientUnits="userSpaceOnUse" x1="3.0593" y1="91.7778" x2="129.6054" y2="91.7778">
		<stop  offset="0" style="stop-color:#FC4E2B"/>
		<stop  offset="1" style="stop-color:#FC962B"/>
	</linearGradient>
	<use xlink:href="#SVGID_21_"  overflow="visible" fill="url(#SVGID_22_)"/>
	<clipPath id="SVGID_23_">
		<use xlink:href="#SVGID_21_"  overflow="visible"/>
	</clipPath>
	
		<linearGradient id="SVGID_24_" gradientUnits="userSpaceOnUse" x1="-400.916" y1="494.761" x2="-396.946" y2="494.761" gradientTransform="matrix(31.8752 0 0 -31.8752 12782.3242 15862.3652)">
		<stop  offset="0" style="stop-color:#FC4E2B"/>
		<stop  offset="1" style="stop-color:#FC962B"/>
	</linearGradient>
	<rect x="3.1" y="16.8" clip-path="url(#SVGID_23_)" fill="url(#SVGID_24_)" width="126.5" height="150"/>
</g>
<g>
	<defs>
		<path id="SVGID_25_" d="M28.9,291.1c0-5.3,4.7-10,10-10c5.9,0,10,4.1,10,10c0,5.3-4.7,10-10,10C33.6,301,28.9,296.3,28.9,291.1
			 M20.7,290.5c0,10,8.2,18.2,18.2,18.2c10,0,18.2-8.2,18.2-18.2c0-10-8.2-18.2-18.2-18.2C28.9,272.3,20.7,280.5,20.7,290.5"/>
	</defs>
	<linearGradient id="SVGID_26_" gradientUnits="userSpaceOnUse" x1="20.6666" y1="290.4622" x2="56.9927" y2="290.4622">
		<stop  offset="0" style="stop-color:#FC4E2B"/>
		<stop  offset="1" style="stop-color:#FC962B"/>
	</linearGradient>
	<use xlink:href="#SVGID_25_"  overflow="visible" fill="url(#SVGID_26_)"/>
	<clipPath id="SVGID_27_">
		<use xlink:href="#SVGID_25_"  overflow="visible"/>
	</clipPath>
	
		<linearGradient id="SVGID_28_" gradientUnits="userSpaceOnUse" x1="-394.2999" y1="494.3898" x2="-390.3294" y2="494.3898" gradientTransform="matrix(9.1491 0 0 -9.1491 3628.1501 4813.6772)">
		<stop  offset="0" style="stop-color:#FC4E2B"/>
		<stop  offset="1" style="stop-color:#FC962B"/>
	</linearGradient>
	<rect x="20.7" y="272.3" clip-path="url(#SVGID_27_)" fill="url(#SVGID_28_)" width="36.3" height="36.3"/>
</g>
<linearGradient id="SVGID_29_" gradientUnits="userSpaceOnUse" x1="465.1524" y1="596.4427" x2="465.1524" y2="596.4427">
	<stop  offset="0" style="stop-color:#FC4E2B"/>
	<stop  offset="1" style="stop-color:#FC962B"/>
</linearGradient>
<path fill="url(#SVGID_29_)" d="M465.2,596.4"/>
<rect x="89.9" y="102.2" fill="none" width="583" height="649.1"/>
<linearGradient id="SVGID_30_" gradientUnits="userSpaceOnUse" x1="98.9953" y1="524.7551" x2="672.8892" y2="524.7551">
	<stop  offset="0" style="stop-color:#FC4E2B"/>
	<stop  offset="1" style="stop-color:#FC962B"/>
</linearGradient>
<path fill="url(#SVGID_30_)" d="M664.8,583.8h-89.5c-31.7,0-57.5-25.7-57.5-57.5c0-31.7,25.7-57.5,57.5-57.5h89.4
	c2.7,0,5.5,0.2,8.1,0.5V347.3c-2.7-26.5-24.2-47.2-50.9-48.3H152.3c-29.4,0-53.2,24-53.3,53.7v351.6c3.1,23.9,21.7,42.9,45.3,46.3
	H631c21.1-4.2,37.8-21.1,41.9-42.5V583.3C670.2,583.7,667.5,583.8,664.8,583.8L664.8,583.8z M664.8,583.8"/>
<linearGradient id="SVGID_31_" gradientUnits="userSpaceOnUse" x1="348.0981" y1="368.2679" x2="615.9556" y2="368.2679">
	<stop  offset="0" style="stop-color:#FC4E2B"/>
	<stop  offset="1" style="stop-color:#FC962B"/>
</linearGradient>
<path fill="url(#SVGID_31_)" d="M565,525.6c0,14.1,11.4,25.5,25.5,25.5c14.1,0,25.5-11.4,25.5-25.5c0-14.1-11.4-25.5-25.5-25.5
	C576.4,500.1,565,511.5,565,525.6L565,525.6z M581.8,265.4l-31.3-56.6c-15.1-21.9-44.1-29.6-67.9-17.7l-134.5,74.3H581.8z
	 M581.8,265.4"/>
<rect x="99" y="185.3" fill="none" width="574.3" height="565.9"/>
</svg>
