<?xml version="1.0" encoding="utf-8"?>
<!-- Generator: Adobe Illustrator 18.0.0, SVG Export Plug-In . SVG Version: 6.00 Build 0)  -->
<!DOCTYPE svg PUBLIC "-//W3C//DTD SVG 1.1//EN" "http://www.w3.org/Graphics/SVG/1.1/DTD/svg11.dtd">
<svg version="1.1" id="图层_1" xmlns="http://www.w3.org/2000/svg" xmlns:xlink="http://www.w3.org/1999/xlink" x="0px" y="0px"
	 viewBox="0 0 761.5 764.2" enable-background="new 0 0 761.5 764.2" xml:space="preserve">
<linearGradient id="SVGID_1_" gradientUnits="userSpaceOnUse" x1="89.8781" y1="458.6625" x2="672.8819" y2="458.6625">
	<stop  offset="0" style="stop-color:#FC4E2B"/>
	<stop  offset="1" style="stop-color:#FC962B"/>
</linearGradient>
<path fill="url(#SVGID_1_)" d="M345.9,480l75.1,75.1l72.5-72.5c4.3-4.3,10.2-6.9,16.7-6.9h162.2c0.3-5.6,0.5-11.3,0.5-17
	c0-161.2-130.7-291.9-291.9-291.9c-154.2,0-280.4,119.5-291.1,271h138.6l82.3-82.3c9.2-9.2,24.1-9.2,33.3,0l91.8,91.8
	c8.6,9.3,8.4,23.7-0.6,32.7c-9,9-23.4,9.2-32.7,0.6l-75.1-75.1L254.9,478c-4.4,4.4-10.4,6.9-16.7,6.9H90.3
	C103.6,633.8,228.6,750.6,381,750.6c139.2,0,255.6-97.4,284.8-227.7H520l-82.3,82.3c-9.2,9.2-24.1,9.2-33.3,0l-91.8-91.8
	c-6-5.9-8.3-14.6-6.1-22.8c2.2-8.1,8.5-14.5,16.6-16.7C331.2,471.8,339.9,474.1,345.9,480L345.9,480z M345.9,480"/>
<g>
	<defs>
		<path id="SVGID_2_" d="M742.3,341.5v42.2c0,2.9,2.3,5.3,5.3,5.3c2.9,0,5.3-2.3,5.3-5.3v-42.2c0-2.9-2.3-5.3-5.3-5.3
			C744.6,336.2,742.3,338.6,742.3,341.5"/>
	</defs>
	<linearGradient id="SVGID_3_" gradientUnits="userSpaceOnUse" x1="742.2673" y1="362.5726" x2="752.8118" y2="362.5726">
		<stop  offset="0" style="stop-color:#FC4E2B"/>
		<stop  offset="1" style="stop-color:#FC962B"/>
	</linearGradient>
	<use xlink:href="#SVGID_2_"  overflow="visible" fill="url(#SVGID_3_)"/>
	<clipPath id="SVGID_4_">
		<use xlink:href="#SVGID_2_"  overflow="visible"/>
	</clipPath>
	
		<linearGradient id="SVGID_5_" gradientUnits="userSpaceOnUse" x1="-169.8742" y1="488.795" x2="-165.9059" y2="488.795" gradientTransform="matrix(2.6571 0 0 -2.6571 1193.6409 1661.3522)">
		<stop  offset="0" style="stop-color:#FC4E2B"/>
		<stop  offset="1" style="stop-color:#FC962B"/>
	</linearGradient>
	<rect x="742.3" y="336.2" clip-path="url(#SVGID_4_)" fill="url(#SVGID_5_)" width="10.5" height="52.7"/>
</g>
<g>
	<defs>
		<path id="SVGID_6_" d="M634.9,92.5c14.5,0,26.2,13.7,26.2,31.1c0-16.9,11.7-31.1,26.2-31.1c-14.5,0-26.2-13.7-26.2-31.1
			C661.1,78.4,649.4,92.5,634.9,92.5"/>
	</defs>
	<linearGradient id="SVGID_7_" gradientUnits="userSpaceOnUse" x1="634.853" y1="92.4785" x2="687.3016" y2="92.4785">
		<stop  offset="0" style="stop-color:#FC4E2B"/>
		<stop  offset="1" style="stop-color:#FC962B"/>
	</linearGradient>
	<use xlink:href="#SVGID_6_"  overflow="visible" fill="url(#SVGID_7_)"/>
	<clipPath id="SVGID_8_">
		<use xlink:href="#SVGID_6_"  overflow="visible"/>
	</clipPath>
	
		<linearGradient id="SVGID_9_" gradientUnits="userSpaceOnUse" x1="-362.1954" y1="503.75" x2="-358.2255" y2="503.75" gradientTransform="matrix(13.2113 0 0 -13.2113 5419.9243 6747.6699)">
		<stop  offset="0" style="stop-color:#FC4E2B"/>
		<stop  offset="1" style="stop-color:#FC962B"/>
	</linearGradient>
	<rect x="634.9" y="61.4" clip-path="url(#SVGID_8_)" fill="url(#SVGID_9_)" width="52.4" height="62.1"/>
</g>
<g>
	<defs>
		<path id="SVGID_10_" d="M217.4,23.8c0-7,5.9-12.9,12.9-12.9c7,0,12.9,5.9,12.9,12.9c0,7-5.9,12.9-12.9,12.9
			C223.3,36.7,217.4,30.9,217.4,23.8 M230.3,1c-12.3,0-22.8,10-22.8,22.8c0,12.3,10,22.9,22.8,22.9s22.9-10,22.9-22.9
			C253.1,11.5,243.2,1,230.3,1z"/>
	</defs>
	<linearGradient id="SVGID_11_" gradientUnits="userSpaceOnUse" x1="207.4467" y1="23.8498" x2="253.1462" y2="23.8498">
		<stop  offset="0" style="stop-color:#FC4E2B"/>
		<stop  offset="1" style="stop-color:#FC962B"/>
	</linearGradient>
	<use xlink:href="#SVGID_10_"  overflow="visible" fill="url(#SVGID_11_)"/>
	<clipPath id="SVGID_12_">
		<use xlink:href="#SVGID_10_"  overflow="visible"/>
	</clipPath>
	
		<linearGradient id="SVGID_13_" gradientUnits="userSpaceOnUse" x1="-383.9455" y1="510.4826" x2="-379.9753" y2="510.4826" gradientTransform="matrix(11.5108 0 0 -11.5108 4626.9512 5899.8926)">
		<stop  offset="0" style="stop-color:#FC4E2B"/>
		<stop  offset="1" style="stop-color:#FC962B"/>
	</linearGradient>
	<rect x="207.4" y="1" clip-path="url(#SVGID_12_)" fill="url(#SVGID_13_)" width="45.7" height="45.7"/>
</g>
<g>
	<defs>
		<path id="SVGID_14_" d="M728.5,174c0-7,5.9-12.9,12.9-12.9s12.9,5.9,12.9,12.9c0,7-5.9,12.9-12.9,12.9S728.5,181,728.5,174
			 M718.6,174c0,12.3,10,22.9,22.8,22.9s22.9-10,22.9-22.9c0-12.3-10-22.8-22.9-22.8C729.1,151.1,718.6,161.1,718.6,174"/>
	</defs>
	<linearGradient id="SVGID_15_" gradientUnits="userSpaceOnUse" x1="718.5818" y1="173.9822" x2="764.2813" y2="173.9822">
		<stop  offset="0" style="stop-color:#FC4E2B"/>
		<stop  offset="1" style="stop-color:#FC962B"/>
	</linearGradient>
	<use xlink:href="#SVGID_14_"  overflow="visible" fill="url(#SVGID_15_)"/>
	<clipPath id="SVGID_16_">
		<use xlink:href="#SVGID_14_"  overflow="visible"/>
	</clipPath>
	
		<linearGradient id="SVGID_17_" gradientUnits="userSpaceOnUse" x1="-350.7255" y1="500.7251" x2="-346.7553" y2="500.7251" gradientTransform="matrix(11.5108 0 0 -11.5108 4755.6987 5937.7085)">
		<stop  offset="0" style="stop-color:#FC4E2B"/>
		<stop  offset="1" style="stop-color:#FC962B"/>
	</linearGradient>
	<rect x="718.6" y="151.1" clip-path="url(#SVGID_16_)" fill="url(#SVGID_17_)" width="45.7" height="45.7"/>
</g>
<g>
	<defs>
		<path id="SVGID_18_" d="M143.3,173.8c0,7.8,6.3,14.4,14.4,14.4c8.1,0,14.4-6.3,14.4-14.4c0-7.8-6.3-14.4-14.4-14.4
			C150,159.4,143.3,165.7,143.3,173.8"/>
	</defs>
	<linearGradient id="SVGID_19_" gradientUnits="userSpaceOnUse" x1="143.3141" y1="173.7856" x2="172.1528" y2="173.7856">
		<stop  offset="0" style="stop-color:#FC4E2B"/>
		<stop  offset="1" style="stop-color:#FC962B"/>
	</linearGradient>
	<use xlink:href="#SVGID_18_"  overflow="visible" fill="url(#SVGID_19_)"/>
	<clipPath id="SVGID_20_">
		<use xlink:href="#SVGID_18_"  overflow="visible"/>
	</clipPath>
	
		<linearGradient id="SVGID_21_" gradientUnits="userSpaceOnUse" x1="-379.4139" y1="507.9658" x2="-375.4444" y2="507.9658" gradientTransform="matrix(7.265 0 0 -7.265 2899.7617 3864.1646)">
		<stop  offset="0" style="stop-color:#FC4E2B"/>
		<stop  offset="1" style="stop-color:#FC962B"/>
	</linearGradient>
	<rect x="143.3" y="159.4" clip-path="url(#SVGID_20_)" fill="url(#SVGID_21_)" width="28.8" height="28.8"/>
</g>
<g>
	<defs>
		<path id="SVGID_22_" d="M3.1,91.8c35.1,0,63.3,33.4,63.3,75c0-41.6,28.1-75,63.3-75c-35.2,0-63.3-33.4-63.3-75
			C66.3,57.8,38.2,91.8,3.1,91.8"/>
	</defs>
	<linearGradient id="SVGID_23_" gradientUnits="userSpaceOnUse" x1="3.0593" y1="91.7778" x2="129.6054" y2="91.7778">
		<stop  offset="0" style="stop-color:#FC4E2B"/>
		<stop  offset="1" style="stop-color:#FC962B"/>
	</linearGradient>
	<use xlink:href="#SVGID_22_"  overflow="visible" fill="url(#SVGID_23_)"/>
	<clipPath id="SVGID_24_">
		<use xlink:href="#SVGID_22_"  overflow="visible"/>
	</clipPath>
	
		<linearGradient id="SVGID_25_" gradientUnits="userSpaceOnUse" x1="-400.916" y1="494.761" x2="-396.946" y2="494.761" gradientTransform="matrix(31.8752 0 0 -31.8752 12782.3242 15862.3652)">
		<stop  offset="0" style="stop-color:#FC4E2B"/>
		<stop  offset="1" style="stop-color:#FC962B"/>
	</linearGradient>
	<rect x="3.1" y="16.8" clip-path="url(#SVGID_24_)" fill="url(#SVGID_25_)" width="126.5" height="150"/>
</g>
<g>
	<defs>
		<path id="SVGID_26_" d="M28.9,291.1c0-5.3,4.7-10,10-10c5.9,0,10,4.1,10,10c0,5.3-4.7,10-10,10C33.6,301,28.9,296.3,28.9,291.1
			 M20.7,290.5c0,10,8.2,18.2,18.2,18.2c10,0,18.2-8.2,18.2-18.2c0-10-8.2-18.2-18.2-18.2C28.9,272.3,20.7,280.5,20.7,290.5"/>
	</defs>
	<linearGradient id="SVGID_27_" gradientUnits="userSpaceOnUse" x1="20.6666" y1="290.4622" x2="56.9927" y2="290.4622">
		<stop  offset="0" style="stop-color:#FC4E2B"/>
		<stop  offset="1" style="stop-color:#FC962B"/>
	</linearGradient>
	<use xlink:href="#SVGID_26_"  overflow="visible" fill="url(#SVGID_27_)"/>
	<clipPath id="SVGID_28_">
		<use xlink:href="#SVGID_26_"  overflow="visible"/>
	</clipPath>
	
		<linearGradient id="SVGID_29_" gradientUnits="userSpaceOnUse" x1="-394.2999" y1="494.3898" x2="-390.3294" y2="494.3898" gradientTransform="matrix(9.1491 0 0 -9.1491 3628.1501 4813.6772)">
		<stop  offset="0" style="stop-color:#FC4E2B"/>
		<stop  offset="1" style="stop-color:#FC962B"/>
	</linearGradient>
	<rect x="20.7" y="272.3" clip-path="url(#SVGID_28_)" fill="url(#SVGID_29_)" width="36.3" height="36.3"/>
</g>
</svg>
