<?xml version="1.0" standalone="no"?><!DOCTYPE svg PUBLIC "-//W3C//DTD SVG 1.1//EN" "http://www.w3.org/Graphics/SVG/1.1/DTD/svg11.dtd"><svg t="1592723489766" class="icon" viewBox="0 0 1024 1024" version="1.1" xmlns="http://www.w3.org/2000/svg" p-id="849" xmlns:xlink="http://www.w3.org/1999/xlink" width="64" height="64"><defs><style type="text/css"></style></defs><path d="M324.266667 539.306667c118.762667 0 215.04-96.277333 215.04-215.04 0-118.762667-96.277333-215.04-215.04-215.04-118.762667 0-215.04 96.277333-215.04 215.04 0 118.762667 96.277333 215.04 215.04 215.04z m0 23.893333c-131.959467 0-238.933333-106.973867-238.933334-238.933333s106.973867-238.933333 238.933334-238.933334 238.933333 106.973867 238.933333 238.933334-106.973867 238.933333-238.933333 238.933333z" fill="#fc4e2b" p-id="850"></path><path d="M324.266667 483.473067c87.927467 0 159.2064-71.278933 159.2064-159.2064S412.194133 165.060267 324.266667 165.060267 165.060267 236.3392 165.060267 324.266667 236.3392 483.473067 324.266667 483.473067z m0 23.761066c-101.051733 0-182.967467-81.92-182.967467-182.967466 0-101.051733 81.92-182.967467 182.967467-182.967467 101.051733 0 182.967467 81.92 182.967466 182.967467 0 101.051733-81.92 182.967467-182.967466 182.967466z" fill="#fc4e2b" p-id="851"></path><path d="M353.216 278.272h43.012267a11.989333 11.989333 0 0 1 0 23.9744H336.256v23.970133h59.976533a11.989333 11.989333 0 0 1 0 23.9744H336.256v50.376534a11.989333 11.989333 0 0 1-23.970133 0V350.190933H252.305067a11.989333 11.989333 0 1 1 0-23.9744H312.277333v-23.9744H252.305067a11.989333 11.989333 0 0 1 0-23.970133h42.286933l-21.8112-21.8112a11.989333 11.989333 0 1 1 16.951467-16.951467l34.176 34.171734 34.167466-34.176a11.989333 11.989333 0 1 1 16.951467 16.955733l-21.8112 21.8112z" fill="#fc4e2b" p-id="852"></path><path d="M699.733333 914.773333c118.762667 0 215.04-96.277333 215.04-215.04 0-118.762667-96.277333-215.04-215.04-215.04-118.762667 0-215.04 96.277333-215.04 215.04 0 118.762667 96.277333 215.04 215.04 215.04z m0 23.893334c-131.959467 0-238.933333-106.973867-238.933333-238.933334s106.973867-238.933333 238.933333-238.933333 238.933333 106.973867 238.933334 238.933333-106.973867 238.933333-238.933334 238.933334z" fill="#fc4e2b" p-id="853"></path><path d="M697.518933 857.301333c88.2432 0 159.778133-71.5392 159.778134-159.7824 0-88.238933-71.534933-159.773867-159.778134-159.773866-88.238933 0-159.773867 71.534933-159.773866 159.773866 0 88.2432 71.534933 159.778133 159.773866 159.778134z m0 23.8464c-101.410133 0-183.624533-82.2144-183.624533-183.6288 0-101.410133 82.2144-183.624533 183.624533-183.624533 101.418667 0 183.6288 82.2144 183.6288 183.624533 0 101.418667-82.2144 183.6288-183.6288 183.6288z" fill="#fc4e2b" p-id="854"></path><path d="M710.971733 796.0064c23.317333-5.7984 40.9472-26.376533 41.821867-51.477333 1.0624-30.378667-22.826667-55.867733-53.3504-56.9344a12.228267 12.228267 0 0 0-1.194667 0.017066 12.228267 12.228267 0 0 0-1.194666-0.098133c-15.927467-0.554667-28.3904-13.853867-27.835734-29.704533 0.554667-15.850667 13.909333-28.245333 29.841067-27.690667 15.9232 0.554667 28.386133 13.853867 27.835733 29.704533a11.9936 11.9936 0 0 0 11.5968 12.373334 11.9936 11.9936 0 0 0 12.433067-11.5328c0.8832-25.262933-16.2688-46.993067-39.953067-52.906667v-11.042133a12.023467 12.023467 0 1 0-24.046933 0v10.615466c-23.159467 4.936533-40.878933 25.015467-41.7408 49.6384-1.015467 29.056 21.832533 53.44 51.0336 54.459734 0.401067 0.0128 0.802133 0.008533 1.194667-0.017067 0.392533 0.0512 0.789333 0.085333 1.194666 0.1024 17.2544 0.597333 30.754133 15.010133 30.1568 32.1792-0.597333 17.169067-15.074133 30.600533-32.328533 29.994667-17.2544-0.597333-30.754133-15.005867-30.1568-32.1792a11.9936 11.9936 0 0 0-11.5968-12.373334 11.9936 11.9936 0 0 0-12.433067 11.537067c-0.96 27.434667 18.427733 50.88 44.672 55.953067v10.551466a12.023467 12.023467 0 1 0 24.0512 0v-11.170133z" fill="#fc4e2b" p-id="855"></path><path d="M810.666667 349.866667V264.533333c0-28.2752-22.9248-51.2-51.2-51.2h-98.133334a17.066667 17.066667 0 1 0 0 34.133334h98.133334a17.066667 17.066667 0 0 1 17.066666 17.066666v85.333334h-26.990933a8.533333 8.533333 0 0 0-6.173867 14.4256l44.0576 46.1568a8.533333 8.533333 0 0 0 12.347734 0l44.0576-46.1568A8.533333 8.533333 0 0 0 837.6576 349.866667H810.666667zM214.724267 673.3568v85.333333c0 28.2752 22.9248 51.2 51.2 51.2h98.133333a17.066667 17.066667 0 1 0 0-34.133333h-98.133333a17.066667 17.066667 0 0 1-17.066667-17.066667v-85.333333h26.990933a8.533333 8.533333 0 0 0 6.173867-14.4256l-44.0576-46.1568a8.533333 8.533333 0 0 0-12.347733 0l-44.0576 46.1568a8.533333 8.533333 0 0 0 6.173866 14.421333h26.990934z" fill="#fc4e2b" p-id="856"></path></svg>