<?xml version="1.0" standalone="no"?><!DOCTYPE svg PUBLIC "-//W3C//DTD SVG 1.1//EN" "http://www.w3.org/Graphics/SVG/1.1/DTD/svg11.dtd"><svg t="1599179438825" class="icon" viewBox="0 0 1024 1024" version="1.1" xmlns="http://www.w3.org/2000/svg" p-id="6661" xmlns:xlink="http://www.w3.org/1999/xlink" width="64" height="64"><defs><style type="text/css"></style></defs><path d="M814.933333 914.666667H214.4c-54.933333 0-99.733333-44.8-99.733333-99.733334V214.4c0-54.933333 44.8-99.733333 99.733333-99.733333h601.066667c54.933333 0 99.733333 44.8 99.733333 99.733333v601.066667c-0.533333 54.4-45.333333 99.2-100.266667 99.2z" fill="#FC4E2B" p-id="6662"></path><path d="M794.666667 224m-21.333334 0a21.333333 21.333333 0 1 0 42.666667 0 21.333333 21.333333 0 1 0-42.666667 0Z" fill="#FFFFFF" p-id="6663"></path><path d="M511.466667 515.733333m-199.466667 0a199.466667 199.466667 0 1 0 398.933333 0 199.466667 199.466667 0 1 0-398.933333 0Z" fill="#FFFFFF" p-id="6664"></path><path d="M511.466667 514.133333m-121.6 0a121.6 121.6 0 1 0 243.2 0 121.6 121.6 0 1 0-243.2 0Z" fill="#FC4E2B" p-id="6665"></path></svg>