<?xml version="1.0" encoding="utf-8"?>
<!-- Generator: Adobe Illustrator 18.0.0, SVG Export Plug-In . SVG Version: 6.00 Build 0)  -->
<!DOCTYPE svg PUBLIC "-//W3C//DTD SVG 1.1//EN" "http://www.w3.org/Graphics/SVG/1.1/DTD/svg11.dtd">
<svg version="1.1" id="图层_1" xmlns="http://www.w3.org/2000/svg" xmlns:xlink="http://www.w3.org/1999/xlink" x="0px" y="0px"
	 viewBox="0 0 842 841.9" enable-background="new 0 0 842 841.9" xml:space="preserve">
<path fill="#CDCDCD" d="M787.3,48.3C758.3,19.3,719,3,678,3H162.5C77.1,3,7.9,72.2,7.9,157.6l0.7,395.6c0,41,16.3,80.3,45.3,109.3
	c29,29,68.3,45.3,109.3,45.3h515.5c41,0,80.3-16.3,109.3-45.3c29-29,45.3-68.3,45.3-109.3l-0.7-395.6
	C832.6,116.6,816.3,77.3,787.3,48.3z M781.8,553.3c0,27.3-10.9,53.6-30.2,72.9c-19.3,19.3-45.6,30.2-72.9,30.2H163.3
	c-27.3,0-53.6-10.9-72.9-30.2c-19.3-19.3-30.2-45.6-30.2-72.9l-0.7-395.6c0-27.3,10.9-53.6,30.2-72.9c19.3-19.3,45.6-30.2,72.9-30.2
	H678c56.9,0,103.1,46.2,103.1,103.1L781.8,553.3z"/>
<polygon fill="#CDCDCD" points="256.8,343.2 256.8,343.3 256.9,343.2 "/>
<path fill="#CDCDCD" d="M704.5,423.6h-55.3L514.7,151.9c-4.7-9.4-14.2-15.1-24.2-14.5c-10.1,0.6-18.9,7.3-22.6,17.3L349,474.8
	l-69.7-171.1c-4.2-10.3-13.8-16.8-24.4-16.5c-10.6,0.3-19.9,7.4-23.5,17.9l-41,118.5h-52.9c-14.2,0-25.8,12.2-25.8,27.3
	c0,15.1,11.5,27.3,25.8,27.3h70.9c10.8,0,20.5-7.2,24.2-17.9l25-72l0-0.1h0.1l0,0.1l68.9,168.9c4.2,10.1,13.7,16.6,24.1,16.4
	c10.4-0.2,19.7-7,23.5-17.3l121.1-326.2l115.6,233.5c4.4,9,13.2,14.6,22.8,14.6h70.9c14.2,0,25.8-12.2,25.8-27.3
	C730.3,435.8,718.7,423.6,704.5,423.6z"/>
<path fill="#CDCDCD" d="M189,790.3H653c14.2,0,25.8,11.5,25.8,25.8c0,14.2-11.5,25.8-25.8,25.8H189c-14.2,0-25.8-11.5-25.8-25.8
	C163.3,801.9,174.8,790.3,189,790.3L189,790.3z"/>
<path fill="#CDCDCD" d="M188.3,673.1"/>
</svg>
