<?xml version="1.0" standalone="no"?><!DOCTYPE svg PUBLIC "-//W3C//DTD SVG 1.1//EN" "http://www.w3.org/Graphics/SVG/1.1/DTD/svg11.dtd"><svg t="1599307572422" class="icon" viewBox="0 0 1024 1024" version="1.1" xmlns="http://www.w3.org/2000/svg" p-id="8039" xmlns:xlink="http://www.w3.org/1999/xlink" width="64" height="64"><defs><style type="text/css"></style></defs><path d="M256 85.333333h512a170.666667 170.666667 0 0 1 170.666667 170.666667v512a170.666667 170.666667 0 0 1-170.666667 170.666667H256a170.666667 170.666667 0 0 1-170.666667-170.666667V256a170.666667 170.666667 0 0 1 170.666667-170.666667z m0 85.333334a85.333333 85.333333 0 0 0-85.333333 85.333333v512a85.333333 85.333333 0 0 0 85.333333 85.333333h512a85.333333 85.333333 0 0 0 85.333333-85.333333V256a85.333333 85.333333 0 0 0-85.333333-85.333333H256z" p-id="8040" fill="#fc4e2b"></path><path d="M512 682.666667a170.666667 170.666667 0 1 0 0-341.333334 170.666667 170.666667 0 0 0 0 341.333334z m0-85.333334a85.333333 85.333333 0 1 1 0-170.666666 85.333333 85.333333 0 0 1 0 170.666666z" p-id="8041" fill="#fc4e2b"></path><path d="M746.666667 277.333333m-64 0a64 64 0 1 0 128 0 64 64 0 1 0-128 0Z" p-id="8042" fill="#fc4e2b"></path></svg>