<?xml version="1.0" encoding="utf-8"?>
<!-- Generator: Adobe Illustrator 18.0.0, SVG Export Plug-In . SVG Version: 6.00 Build 0)  -->
<!DOCTYPE svg PUBLIC "-//W3C//DTD SVG 1.1//EN" "http://www.w3.org/Graphics/SVG/1.1/DTD/svg11.dtd">
<svg version="1.1" id="图层_1" xmlns="http://www.w3.org/2000/svg" xmlns:xlink="http://www.w3.org/1999/xlink" x="0px" y="0px"
	 viewBox="0 0 842 841.9" enable-background="new 0 0 842 841.9" xml:space="preserve">
<path fill="#666666" d="M424.9,297.2c6.1-6.7,5.5-17.2-1.2-23.3h0c-6.7-6.1-17.2-5.5-23.3,1.2c-6.1,6.7-5.5,17.2,1.2,23.3
	S418.8,303.9,424.9,297.2z"/>
<polygon fill="#666666" points="559.5,452.7 559.6,452.6 559.4,452.6 "/>
<polygon fill="#666666" points="284.5,385.9 284.3,386.1 284.7,386.1 "/>
<path fill="none" d="M344,181.3c201.7,0,365.2,163.5,365.2,365.2c0,36.8-5.4,72.3-15.6,105.8l15.6,15.2
	c60-68.1,92.1-156.1,92.1-248.2C801.3,209.1,631.2,39,421,39C242.6,39,93.1,161.6,52,327.2C118.6,238.6,224.6,181.3,344,181.3z"/>
<path fill="#F9D2A8" d="M465,611.4c-12,12-28,18-44,18c-18,0-32-6-44-18L226.9,461.3c-12-12-18-28-18-44c0-18,6-32,18-44L377,223.2
	c12-12,28-18,44-18c18,0,32,6,44,18l150.1,150.1c12,12,18,28,18,44c0,18-6,32-18,44l-58,58l136.5,132.9
	c10.1-33.5,15.6-69,15.6-105.8c0-201.7-163.5-365.2-365.2-365.2c-119.4,0-225.4,57.3-292,145.9c-7.3,29.5-11.2,60.4-11.2,92.1
	c0,210.2,170.1,380.3,380.3,380.3c62,0,122.1-16,178.1-44c10-6,22-2,28,8c1.9,3.2,2.8,6.7,2.8,10.1c19.4-24.5,35.8-51.4,48.6-80.4
	L529.1,547.4L465,611.4z"/>
<path fill="#F9D2A8" d="M559.5,452.7l0.1-0.1l34.9-38.8L410.4,248.1l-0.4,0.4l-34.3,38.1l-0.4,0.4l116.7,105l-207.4-5.9l-0.3-0.2
	l-0.2,0.2l-34.8,38.7l184.1,165.6l0.4-0.4l34.3-38.1l0.4-0.4L352,446.7l207.4,5.9L559.5,452.7z M421.7,545.4
	c6.1-6.7,16.6-7.3,23.3-1.2h0c6.7,6.1,7.3,16.6,1.2,23.3c-6.1,6.7-16.6,7.3-23.3,1.2h0C416.2,562.6,415.7,552.1,421.7,545.4z"/>
<path fill="#EA4F2F" d="M423,568.7L423,568.7c6.7,6.1,17.2,5.5,23.3-1.2c6.1-6.7,5.5-17.2-1.2-23.3h0c-6.7-6.1-17.2-5.5-23.3,1.2
	C415.7,552.1,416.2,562.6,423,568.7z"/>
<path fill="#EA4F2F" d="M401.6,298.4L401.6,298.4c6.7,6.1,17.2,5.5,23.3-1.2c6.1-6.7,5.5-17.2-1.2-23.3h0
	c-6.7-6.1-17.2-5.5-23.3,1.2C394.3,281.8,394.8,292.3,401.6,298.4z"/>
<path fill="#EA4F2F" d="M619.1,791.6c6.8-4.1,10.8-10.8,10.8-17.9c-6.2,7.8-12.8,15.4-19.7,22.7
	C613.3,794.8,616.2,793.2,619.1,791.6z"/>
<path fill="#EA4F2F" d="M807.3,255.2c-22-50-52-94.1-90.1-134.1c-38-38-84.1-68.1-134.1-90.1C531.1,11,477-1,419-1
	c-58,0-112.1,12-164.1,32c-48,22-94.1,52-132.1,92.1c-38,38-68,84.1-90.1,134.1c-22,52-32,106.1-32,164.1c0,0.1,0,0.2,0,0.3
	c12.4-34.1,29.8-65.9,51.3-94.4C93.1,161.6,242.6,39,421,39c210.2,0,380.3,170.1,380.3,380.3c0,92.1-32,180.1-92.1,248.2l-15.6-15.2
	c-4.2,14-9.3,27.7-15.1,40.9l16.7,16.3c2,2,4,2,6,4c8,4,18,2,24-4c74.1-78.1,116.1-180.1,116.1-290.2
	C839.3,363.3,829.3,307.2,807.3,255.2z"/>
<path fill="#EA4F2F" d="M557.1,519.4l58-58c12-12,18-26,18-44c0-16-6-32-18-44L465,223.2c-12-12-26-18-44-18c-16,0-32,6-44,18
	L226.9,373.3c-12,12-18,26-18,44c0,16,6,32,18,44L377,611.4c12,12,26,18,44,18c16,0,32-6,44-18l64-64l149.4,145.8
	c5.8-13.2,10.9-26.9,15.1-40.9L557.1,519.4z M468.6,551.5l-0.4,0.4l1.1,1l-34.3,38.1l-1.1-1l-0.4,0.4L249.5,424.8l34.8-38.7l0.2-0.2
	l0.3,0.2l207.4,5.9l-116.7-105l0.4-0.4l34.3-38.1l0.4-0.4l184.1,165.6l-34.9,38.8l-0.1,0.1l-0.1-0.1L352,446.7L468.6,551.5z"/>
<path fill="#EA4F2F" d="M627.1,763.5c-6-10-18-14-28-8c-56,28-116.1,44-178.1,44c-210.1,0-380.3-170.1-380.3-380.3
	c0-31.8,3.9-62.6,11.2-92.1c-21.5,28.5-38.8,60.3-51.3,94.4c0,57.9,12,111.9,32,163.8c22,50,52,94.1,90.1,134.1
	c38,38,84.1,68,134.1,90.1c52,22,106.1,32,164.1,32c64.7,0,131.3-14.5,189.3-45.2c6.9-7.3,13.4-14.9,19.7-22.7
	C630,770.3,629.1,766.8,627.1,763.5z"/>
<rect x="426" y="570.8" transform="matrix(-0.6688 0.7435 -0.7435 -0.6688 1178.5969 617.8835)" fill="#666666" width="51.3" height="1.5"/>
</svg>
