<?xml version="1.0" standalone="no"?><!DOCTYPE svg PUBLIC "-//W3C//DTD SVG 1.1//EN" "http://www.w3.org/Graphics/SVG/1.1/DTD/svg11.dtd"><svg t="1592182499290" class="icon" viewBox="0 0 1024 1024" version="1.1" xmlns="http://www.w3.org/2000/svg" p-id="12887" xmlns:xlink="http://www.w3.org/1999/xlink" width="64" height="64"><defs><style type="text/css"></style></defs><path d="M160.032 192c52.928 0 96 43.072 96 96 0 41.664-26.824 76.864-64 90.112V416c0 17.664-14.344 32-32 32-17.672 0-32-14.336-32-32v-32h-32c-17.672 0-32-14.336-32-32s14.328-32 32-32h64c17.6 0 32-14.336 32-32s-14.4-32-32-32c-52.928 0-96-43.072-96-96 0-41.664 26.808-76.864 64-90.112V32c0-17.664 14.328-32 32-32 17.656 0 32 14.336 32 32v32h32c17.656 0 32 14.336 32 32s-14.344 32-32 32h-64c-17.6 0-32 14.336-32 32s14.4 32 32 32z m815.864 706.304a31.856 31.856 0 0 1 11.912 43.648c-29.76 52.16-74.88 82.048-123.776 82.048-64.96 0-119.304-51.904-144.584-128h-47.416c-17.672 0-32-14.336-32-32s14.328-32 32-32h34.24c-1.024-10.56-2.24-20.992-2.24-32s1.216-21.44 2.24-32h-34.24c-17.672 0-32-14.336-32-32s14.328-32 32-32h47.416c25.352-76.096 79.616-128 144.584-128 48.832 0 93.944 29.888 123.776 82.048a31.984 31.984 0 0 1-11.912 43.648c-15.296 8.704-34.88 3.52-43.64-11.904-18.12-31.616-42.944-49.792-68.224-49.792-30.536 0-57.992 25.6-75.712 64h75.712c17.656 0 32 14.336 32 32s-14.344 32-32 32H770.072a248.936 248.936 0 0 0-2.04 32c0 10.944 0.696 21.632 2.04 32h61.96c17.656 0 32 14.336 32 32s-14.344 32-32 32H788.32c17.656 38.4 45.176 64 75.712 64 25.28 0 50.104-18.176 68.224-49.792a31.944 31.944 0 0 1 43.64-11.904zM544.032 832c17.656 0 32 14.336 32 32s-14.344 32-32 32h-224c-105.856 0-192-86.144-192-192V621.248l-73.408 73.408a32.024 32.024 0 0 1-45.256 0 32.04 32.04 0 0 1 0.064-45.312l127.936-127.936a33.16 33.16 0 0 1 10.44-6.976 31.744 31.744 0 0 1 24.448 0c3.904 1.664 7.48 4.032 10.424 6.976l128 128a32.024 32.024 0 0 1 0 45.248A32.144 32.144 0 0 1 288.032 704a31.936 31.936 0 0 1-22.664-9.408l-73.336-73.344V704c0 70.592 57.4 128 128 128h224z m470.592-502.592a32.024 32.024 0 0 1 0 45.248l-127.944 127.936a30.504 30.504 0 0 1-10.424 6.976c-3.912 1.6-8.064 2.432-12.224 2.432s-8.32-0.832-12.224-2.432a33.16 33.16 0 0 1-10.44-6.976L713.44 374.656a32.024 32.024 0 0 1 0-45.248 32.024 32.024 0 0 1 45.248 0l73.352 73.344V320c0-70.592-57.408-128-128-128h-224c-17.672 0-32-14.336-32-32s14.328-32 32-32h224c105.848 0 192 86.144 192 192v82.752l73.336-73.408a32.024 32.024 0 0 1 45.256 0.064z" fill="#fc4e2b" p-id="12888"></path></svg>