<?xml version="1.0" standalone="no"?><!DOCTYPE svg PUBLIC "-//W3C//DTD SVG 1.1//EN" "http://www.w3.org/Graphics/SVG/1.1/DTD/svg11.dtd"><svg t="1593005468959" class="icon" viewBox="0 0 1024 1024" version="1.1" xmlns="http://www.w3.org/2000/svg" p-id="874" width="64" height="64" xmlns:xlink="http://www.w3.org/1999/xlink"><defs><style type="text/css"></style></defs><path d="M817.3 358.4c-8.2 0-15.8-5-18.8-13.2-14.3-39.3-43.3-70.3-81.7-87-10.1-4.4-14.7-16.2-10.3-26.3s16.2-14.7 26.3-10.3c24.4 10.7 45.9 25.9 63.9 45.4 17.3 18.8 30.6 40.5 39.4 64.6 3.8 10.4-1.6 21.9-11.9 25.6-2.3 0.8-4.6 1.2-6.9 1.2z" fill="#fc4e2b" p-id="875"></path><path d="M836.3 403c-2.7 0-5.5-0.6-8-1.7l-53.6-23.4c-10.1-4.4-14.7-16.2-10.3-26.3 4.4-10.1 16.2-14.7 26.3-10.3l35.2 15.4 16-36.7c4.4-10.1 16.2-14.7 26.3-10.3 10.1 4.4 14.7 16.2 10.3 26.3l-24 55c-2.1 4.9-6.1 8.7-11 10.6-2.2 0.9-4.7 1.4-7.2 1.4zM362.5 840.9c-0.6 0-1.3 0-1.9-0.1-26.5-2.6-51.7-10.4-74.8-23.3-22.3-12.4-41.7-29-57.5-49.2-6.8-8.7-5.3-21.3 3.4-28.1 8.7-6.8 21.3-5.3 28.1 3.4 25.8 32.9 63 53.3 104.7 57.3 11 1.1 19.1 10.8 18 21.8-1.1 10.4-9.8 18.2-20 18.2z" fill="#fc4e2b" p-id="876"></path><path d="M206.4 799.3c-0.6 0-1.3 0-1.9-0.1-11-1.1-19.1-10.8-18-21.8l5.8-59.8c0.5-5.3 3.1-10.1 7.2-13.5s9.4-5 14.6-4.5l58.2 5.6c11 1.1 19.1 10.8 18 21.8-1.1 11-10.8 19-21.8 18l-38.3-3.7-3.8 39.9c-1.2 10.4-9.9 18.1-20 18.1zM388.9 662.2c-71.1 0-137.9-27.7-188.2-78-50.3-50.3-78-117.1-78-188.2s27.7-137.9 78-188.2c50.3-50.3 117.1-78 188.2-78s137.9 27.7 188.2 78c50.3 50.3 78 117.1 78 188.2s-27.7 137.9-78 188.2c-50.3 50.3-117.1 78-188.2 78z m0-492.3c-124.7 0-226.1 101.4-226.1 226.1s101.4 226.1 226.1 226.1C513.6 622.1 615 520.7 615 396S513.6 169.9 388.9 169.9z" fill="#fc4e2b" p-id="877"></path><path d="M682.5 894.1c-55.9 0-109.2-21.1-149.9-59.4-40.5-38.2-64.8-89.7-68.4-145.1-0.7-11 7.7-20.5 18.7-21.2 11-0.7 20.5 7.7 21.2 18.7 6 93.7 84.4 167.1 178.4 167.1 98.6 0 178.8-80.2 178.8-178.8 0-98.6-80.2-178.8-178.8-178.8-11 0-20-9-20-20s9-20 20-20c58.4 0 113.4 22.8 154.7 64.1 41.3 41.3 64.1 96.3 64.1 154.7S878.5 788.7 837.2 830s-96.3 64.1-154.7 64.1z" fill="#fc4e2b" p-id="878"></path><path d="M695.7 781.7v13.2c0 8.4-6.8 15.2-15.2 15.2-8.4 0-15.2-6.8-15.2-15.2v-13.7c-18.6-2.2-33-8.6-44.2-17.7-16.9-16.3-21.4-30.9-10.4-40.7 12-10.7 24.3-1.2 36.8 9.6 9.9 8.5 21.2 12.5 36.7 12.5 13.8 0 30.3-6.8 30.2-24.8-0.1-14.7-15.7-25.3-32.5-29.1-17.4-3.9-44.1-17.6-57.7-31.2-10.2-10.2-14.4-23-14.4-40.5 0-15.1 11.8-51.2 55.6-54.7v-12.7c0-8.4 6.8-15.2 15.2-15.2 8.4 0 15.2 6.8 15.2 15.2v12.7c16.7 1.8 35 11 43.3 18.1 13.4 12.5 18.6 27.2 8.7 36.7-10.4 10-22.6 6.6-35.1-5.5-6.8-6.5-22.7-13.2-30.2-13.2-15 0-28.2 4.2-28.2 22.9 0 13.5 11.6 17.8 29.3 23.5 29.8 9.5 47.8 21.8 58.2 32.5 10.3 10.7 15.5 24.2 15.5 40.5-0.2 20.2-16.2 60.2-61.6 61.6zM291.4 427.7c-10.8 0-19.5 8.7-19.5 19.5s8.7 19.5 19.5 19.5h78v58.5c0 10.8 8.7 19.5 19.5 19.5s19.5-8.7 19.5-19.5v-58.5h78c10.8 0 19.5-8.7 19.5-19.5s-8.7-19.5-19.5-19.5h-78v-39h78c10.8 0 19.5-8.7 19.5-19.5s-8.7-19.5-19.5-19.5H436l44.7-44.7c7.6-7.6 7.6-20 0-27.6-7.6-7.6-20-7.6-27.6 0L389 341.6l-64.8-65.1c-7.6-7.6-19.9-7.7-27.6-0.1-7.6 7.6-7.7 19.9-0.1 27.6l45.5 45.8h-50.6c-10.8 0-19.5 8.7-19.5 19.5s8.7 19.5 19.5 19.5h78v39l-78-0.1z m0 0" fill="#fc4e2b" p-id="879"></path></svg>