<?xml version="1.0" encoding="utf-8"?>
<!-- Generator: Adobe Illustrator 18.0.0, SVG Export Plug-In . SVG Version: 6.00 Build 0)  -->
<!DOCTYPE svg PUBLIC "-//W3C//DTD SVG 1.1//EN" "http://www.w3.org/Graphics/SVG/1.1/DTD/svg11.dtd">
<svg version="1.1" id="图层_1" xmlns="http://www.w3.org/2000/svg" xmlns:xlink="http://www.w3.org/1999/xlink" x="0px" y="0px"
	 viewBox="0 0 842 841.9" enable-background="new 0 0 842 841.9" xml:space="preserve">
<path d="M811.7,840.8"/>
<path fill="#CDCDCD" d="M807.3,255.2c-22-50-52-94.1-90.1-134.1c-38-38-84.1-68.1-134.1-90.1C531.1,11,477-1,419-1
	c-58,0-112.1,12-164.1,32c-48,22-94.1,52-132.1,92.1c-38,38-68,84.1-90.1,134.1c-22,52-32,106.1-32,164.1c0,58,12,112.1,32,164.1
	c22,50,52,94.1,90.1,134.1c38,38,84.1,68,134.1,90.1c52,22,106.1,32,164.1,32c68.1,0,138.1-16,198.1-50c10-6,14-18,8-28
	c-6-10-18-14-28-8c-56,28-116.1,44-178.1,44c-210.1,0-380.3-170.1-380.3-380.3C40.7,209.1,210.8,39,421,39
	c210.2,0,380.3,170.1,380.3,380.3c0,92.1-32,180.1-92.1,248.2L557.1,519.4l58-58c12-12,18-26,18-44c0-16-6-32-18-44L465,223.2
	c-12-12-26-18-44-18c-16,0-32,6-44,18L226.9,373.3c-12,12-18,26-18,44c0,16,6,32,18,44L377,611.4c12,12,26,18,44,18c16,0,32-6,44-18
	l64-64l166.1,162.1c2,2,4,2,6,4c8,4,18,2,24-4c74.1-78.1,116.1-180.1,116.1-290.2C839.3,363.3,829.3,307.2,807.3,255.2z
	 M468.6,551.5l-0.4,0.4l1.1,1l-34.3,38.1l-1.1-1l-0.4,0.4L249.5,424.8l34.8-38.7l0.2-0.2l0.3,0.2l207.4,5.9l-116.7-105l0.4-0.4
	l34.3-38.1l0.4-0.4l184.1,165.6l-34.9,38.8l-0.1,0.1l-0.1-0.1L352,446.7L468.6,551.5z"/>
<path fill="#CDCDCD" d="M421.7,545.4c-6.1,6.7-5.5,17.2,1.2,23.3h0c6.7,6.1,17.2,5.5,23.3-1.2c6.1-6.7,5.5-17.2-1.2-23.3h0
	C438.3,538.1,427.8,538.6,421.7,545.4z"/>
<path fill="#CDCDCD" d="M424.9,297.2c6.1-6.7,5.5-17.2-1.2-23.3h0c-6.7-6.1-17.2-5.5-23.3,1.2c-6.1,6.7-5.5,17.2,1.2,23.3
	S418.8,303.9,424.9,297.2z"/>
<polygon fill="#666666" points="559.5,452.7 559.6,452.6 559.4,452.6 "/>
<polygon fill="#666666" points="284.5,385.9 284.3,386.1 284.7,386.1 "/>
<rect x="426" y="570.8" transform="matrix(-0.6688 0.7435 -0.7435 -0.6688 1178.5969 617.8835)" fill="#666666" width="51.3" height="1.5"/>
</svg>
