<?xml version="1.0" standalone="no"?><!DOCTYPE svg PUBLIC "-//W3C//DTD SVG 1.1//EN" "http://www.w3.org/Graphics/SVG/1.1/DTD/svg11.dtd"><svg t="1592183923341" class="icon" viewBox="0 0 1083 1024" version="1.1" xmlns="http://www.w3.org/2000/svg" p-id="952" xmlns:xlink="http://www.w3.org/1999/xlink" width="67.6875" height="64"><defs><style type="text/css"></style></defs><path d="M851.762859 0.443733c62.020267 0 112.571733 50.978133 113.237333 113.262934v75.349333a27.1872 27.1872 0 0 1-27.153067 27.272533 27.1872 27.1872 0 0 1-27.153066-27.264v-75.357866c0-32.5888-26.2656-58.965333-58.709334-58.965334H230.664192c-32.452267 0-58.709333 26.376533-58.709333 58.965334v516.872533l71.509333-71.808a26.8288 26.8288 0 0 1 38.178133 0 27.101867 27.101867 0 0 1 0 38.340267L164.001792 715.246933a26.8288 26.8288 0 0 1-19.2 7.978667c-7.0656 0-13.909333-2.653867-19.2-7.978667L7.944192 597.111467a27.101867 27.101867 0 0 1 0-38.340267 26.8288 26.8288 0 0 1 38.186667 0l71.287466 71.594667V113.698133C117.426859 51.2 167.978325 0.443733 230.220459 0.443733h621.5424z m66.440533 308.753067c10.154667-10.197333 28.245333-10.197333 37.9648 0l117.640533 118.135467a27.101867 27.101867 0 0 1 0 38.340266 26.8288 26.8288 0 0 1-38.186666 0l-71.509334-71.808V910.506667c0 62.506667-50.542933 113.262933-112.785066 113.262933H229.998592c-62.242133 0-112.785067-50.756267-112.785067-113.262933v-75.349334a27.1872 27.1872 0 0 1 27.144534-27.272533 27.1872 27.1872 0 0 1 27.153066 27.264v75.357867c0 32.580267 26.2656 58.965333 58.709334 58.965333h621.5424c32.452267 0 58.709333-26.385067 58.709333-58.965333V393.864533l-71.509333 71.808a26.8288 26.8288 0 0 1-19.2 7.978667c-7.0656 0-13.909333-2.653867-19.2-7.978667a27.101867 27.101867 0 0 1 0-38.340266L918.194859 309.1968zM540.995925 271.957333c15.0016 0 26.922667 12.194133 27.144534 27.042134v41.668266h49.885866a27.1872 27.1872 0 0 1 27.144534 27.264 27.1872 27.1872 0 0 1-27.144534 27.264H510.531925c-21.845333 0-39.7312 20.164267-39.7312 44.765867 0 24.610133 17.877333 44.7744 39.7312 44.7744h60.919467c51.652267 0 93.806933 44.330667 93.806933 99.072 0 54.084267-41.275733 98.414933-92.484266 99.080533h-4.6336v42.555734a27.1872 27.1872 0 0 1-27.144534 27.264 27.1872 27.1872 0 0 1-27.153066-27.264v-42.333867h-52.087467a27.1872 27.1872 0 0 1-27.153067-27.264 27.1872 27.1872 0 0 1 27.153067-27.264h109.482667c21.845333 0 39.722667-19.9424 39.722666-44.765867 0-24.610133-17.877333-44.7744-39.7312-44.7744h-60.919466c-51.643733 0-93.806933-44.544-93.806934-99.072s42.154667-99.072 93.806934-99.072h3.5328v-41.6768a27.1872 27.1872 0 0 1 27.153066-27.264z" fill="#c0c0c0" p-id="953"></path></svg>