<?xml version="1.0" standalone="no"?><!DOCTYPE svg PUBLIC "-//W3C//DTD SVG 1.1//EN" "http://www.w3.org/Graphics/SVG/1.1/DTD/svg11.dtd"><svg t="1599103733209" class="icon" viewBox="0 0 1024 1024" version="1.1" xmlns="http://www.w3.org/2000/svg" p-id="1473" xmlns:xlink="http://www.w3.org/1999/xlink" width="64" height="64"><defs><style type="text/css"></style></defs><path d="M341.504 970.752c-10.752 0-19.968-7.68-22.528-18.432L158.208 117.76c-2.56-12.288 5.632-24.064 17.92-26.624s24.064 5.632 26.624 17.92l160.768 834.56c2.56 12.288-5.632 24.064-17.92 26.624-1.024 0.512-2.56 0.512-4.096 0.512z" fill="#fc4e2b" p-id="1474"></path><path d="M634.368 980.992H89.088c-12.288 0-22.528-10.24-22.528-22.528s10.24-22.528 22.528-22.528h545.28c12.288 0 22.528 10.24 22.528 22.528s-10.24 22.528-22.528 22.528zM691.2 574.976c-53.76 0-107.008-12.288-144.384-49.664-38.4-38.4-180.224-3.584-261.12 27.136-11.776 4.608-25.088-1.536-29.184-12.8-4.608-11.776 1.536-25.088 12.8-29.184 24.064-9.216 238.08-88.576 309.248-16.896 65.536 66.048 221.184 26.112 289.792 0l33.28-338.432c-75.776 38.4-246.272 107.008-371.2 25.088-158.208-103.936-320.512-1.024-322.048 0-10.752 6.656-24.576 3.584-31.232-6.656-6.656-10.752-3.584-24.576 6.656-31.232 7.68-5.12 189.44-119.808 371.712 0 137.728 90.624 358.912-46.08 360.96-47.104 7.168-4.608 16.896-4.608 24.064 0 7.168 4.608 11.264 12.8 10.752 21.504l-38.912 395.264c-1.024 8.192-6.144 15.36-13.824 18.944-5.632 2.048-107.52 43.52-207.36 44.032z" fill="#fc4e2b" p-id="1475"></path></svg>